<?xml version="1.0" encoding="UTF-8"?>
<!DOCTYPE svg PUBLIC "-//W3C//DTD SVG 1.1//EN" "http://www.w3.org/Graphics/SVG/1.1/DTD/svg11.dtd">
<!-- Creator: CorelDRAW X6 -->
<svg xmlns="http://www.w3.org/2000/svg" xml:space="preserve" width="50.2708mm" height="50.2708mm" version="1.1" style="shape-rendering:geometricPrecision; text-rendering:geometricPrecision; image-rendering:optimizeQuality; fill-rule:evenodd; clip-rule:evenodd"
viewBox="0 0 5027 5027"
 xmlns:xlink="http://www.w3.org/1999/xlink"
 enable-background="new 32.201 37.218 331.392 303.243">
 <defs>
  <style type="text/css">
   <![CDATA[
    .str0 {stroke:white;stroke-width:52.92;stroke-opacity:0.200000}
    .str1 {stroke:white;stroke-width:52.92}
    .fil2 {fill:none}
    .fil1 {fill:none}
    .fil0 {fill:#5677FC}
    .fil3 {fill:white}
   ]]>
  </style>
 </defs>
 <g id="Слой_x0020_1">
  <metadata id="CorelCorpID_0Corel-Layer"/>
  <rect class="fil0" width="5027" height="5027"/>
  <path class="fil1 str0" d="M1283 2514l0 -1574m1230 0l0 3149m-1574 -1574l3149 0m-3135 -1561l3135 3135m0 -3135l-3135 3135m1568 -355l-1574 0m3149 0l-1574 0m1223 -1219l0 -1574m0 3149l0 -1574m-1223 -1241l-1574 0m3149 0l-1574 0m-1237 2816l0 -1574m2083 1219c-209,0 -378,-169 -378,-378 0,-209 169,-378 378,-378 209,0 378,169 378,378 0,209 -169,378 -378,378zm-1704 0c209,0 378,-169 378,-378 0,-209 -169,-378 -378,-378 -209,0 -378,169 -378,378 0,209 169,378 378,378zm6 -2450c212,0 384,172 384,384 0,212 -172,384 -384,384 -212,0 -384,-172 -384,-384 0,-212 172,-384 384,-384zm1693 13c-212,0 -384,172 -384,384 0,212 172,384 384,384 212,0 384,-172 384,-384 0,-212 -172,-384 -384,-384z"/>
  <rect class="fil2 str1" x="1283" y="1283" width="2461" height="2461" rx="397" ry="397"/>
  <g id="_719258064">
   <g id="Слой_x0020_1_0">
    <g id="_182085344">
     <path class="fil3" d="M1704 2086c0,26 3,44 9,68l7 23 11 28c1,3 2,4 3,7l14 26c2,2 2,4 4,6l33 41c4,5 9,8 13,13 5,5 9,8 14,12 0,0 1,1 1,1l23 17c1,0 1,1 2,1l19 11c2,1 4,2 6,3 2,1 1,1 3,2l17 8c9,5 18,8 27,14 2,1 1,1 3,2l10 5c13,7 25,15 37,23l12 8c5,5 16,13 22,17 8,6 16,14 24,21 11,9 24,21 33,31 2,2 3,3 5,5 2,2 3,3 4,5 2,2 3,3 5,5 0,0 0,0 0,0l16 18c1,1 1,2 2,3 2,2 3,3 4,5 2,2 3,4 5,6 2,2 3,4 4,5l21 30c6,10 13,20 19,30 1,2 2,4 3,7l7 13c2,5 4,8 7,13l9 20c1,1 1,2 2,3l4 8c5,13 13,32 17,45l9 31c1,3 2,5 2,8l4 16c1,3 1,5 2,8l9 61c1,7 0,12 1,19 2,17 1,37 1,54 0,14 -2,24 -2,38 0,13 -3,24 -1,38 1,6 0,13 1,19l8 43 10 30c1,3 2,5 3,7 4,8 7,17 11,24l26 41c8,11 18,23 28,33l40 32 32 19c2,1 1,1 3,2 6,4 26,11 32,13 2,1 2,1 4,1l12 4c3,1 5,2 8,2 8,2 16,5 25,6 4,0 6,0 9,1 6,1 11,2 18,2 6,0 12,0 18,1l11 0 33 -3c2,0 5,0 8,-1 8,-1 15,-4 22,-5 4,-1 4,-1 7,-2 9,-3 19,-5 27,-9 2,-1 4,-2 6,-2 15,-7 31,-14 44,-23l29 -21c4,-3 6,-6 10,-8l10 -8c11,-12 28,-32 36,-45l31 -60c1,-2 1,-2 1,-4l3 -10c4,-11 7,-24 10,-35 1,-3 1,-4 1,-8 0,-5 2,-11 3,-16 0,-3 0,-6 0,-9 4,-24 0,-58 -5,-82l-14 -47c-1,-2 -1,-2 -1,-4 -1,-2 -1,-2 -2,-4 -3,-8 -7,-16 -11,-24l-14 -24c-1,-1 -1,-1 -1,-2 -1,-2 -1,-2 -2,-3 -1,-1 -1,-2 -2,-3l-2 -3c-6,-9 -13,-17 -20,-25 -1,-1 -2,-2 -3,-3 -5,-6 -12,-12 -18,-17 -10,-9 -21,-18 -32,-25l-105 -58c-1,-1 -2,-1 -3,-2 -1,-1 -2,-1 -3,-2l-18 -12c-2,-2 -4,-3 -6,-4l-12 -9c-7,-5 -14,-10 -20,-16 -12,-11 -24,-20 -35,-31l-11 -10c-5,-5 -9,-11 -14,-16l-6 -7c0,0 0,0 0,0l-12 -15c-1,-1 -1,-2 -2,-3l-1 -1c-4,-4 -6,-9 -10,-13 -1,-1 -2,-1 -2,-2l-7 -9c-5,-6 -9,-12 -13,-18l-1 -2c0,0 0,0 0,0l-2 -4c-1,-2 -2,-4 -4,-6 -4,-7 -12,-19 -15,-26 -1,-2 -1,-2 -2,-3l-16 -30c-2,-5 -4,-9 -6,-14l-7 -14c-2,-5 -4,-10 -6,-15l-8 -22c-1,-3 -2,-5 -3,-8 -2,-8 -6,-15 -8,-23l-8 -32c-3,-11 -7,-40 -9,-52l-3 -28c0,-14 -2,-25 -2,-39l0 -17c0,-12 2,-23 2,-35 0,-15 2,-29 1,-44 0,-4 -1,-4 -1,-8 0,-6 0,-12 -1,-18 -2,-14 -5,-32 -9,-46 -1,-2 -2,-4 -2,-7 -1,-4 -1,-4 -2,-7 -1,-2 -1,-4 -2,-7 -5,-12 -7,-18 -14,-32l-10 -18c-1,-2 -1,-2 -2,-3l-17 -25c-7,-10 -21,-27 -30,-34 -2,-1 -3,-3 -5,-4 -6,-6 -13,-12 -20,-17 -2,-2 -3,-2 -5,-4l-28 -18c-8,-4 -16,-8 -25,-12 -2,-1 -2,-1 -3,-1 -8,-4 -17,-7 -26,-10 -6,-2 -11,-5 -17,-6 -8,-1 -15,-4 -23,-5l-16 -2c-6,-1 -11,0 -17,-1 -2,0 -5,0 -8,-1l-30 0c-4,0 -8,1 -11,1 -5,1 -11,2 -15,2 -12,1 -33,7 -44,10 -2,1 -5,1 -7,2l-4 2c-1,0 -1,0 -2,1l-13 5c-2,1 -4,2 -6,3l-6 3c-8,4 -20,10 -28,16 0,0 0,0 0,0l-46 35c-7,6 -19,20 -26,28 -3,3 -5,7 -8,10 -5,5 -7,12 -11,17l-1 2c-1,1 -1,2 -2,3 -6,10 -12,21 -17,32l-9 23c-1,2 -2,4 -2,7 -2,4 -3,8 -5,13 -2,7 -6,24 -6,30 0,6 -1,11 -2,16 -1,4 -1,28 -1,35l0 1 1 -1z"/>
     <path class="fil3" d="M3004 2375l20 0c8,0 31,-3 39,-5l42 -11c2,-1 4,-2 6,-2l13 -5c16,-7 33,-16 47,-26l9 -7c2,-1 3,-2 5,-4l41 -38 27 -35c1,-1 1,-1 2,-2 1,-1 1,-2 2,-3l21 -41c1,-2 2,-4 3,-6 4,-8 6,-18 9,-27l4 -14c3,-10 3,-20 5,-30 1,-7 2,-24 2,-33l0 -1 -2 -35c-2,-10 -3,-21 -5,-32 -1,-2 -2,-5 -2,-7 -2,-8 -6,-23 -10,-31l-5 -13c-3,-8 -8,-17 -12,-25 -4,-8 -9,-15 -14,-23l-8 -11c-3,-4 -6,-8 -9,-12l-9 -10c-2,-2 -2,-3 -4,-5 -5,-5 -8,-9 -14,-14l-10 -9c-4,-4 -19,-16 -26,-20l-29 -17c-11,-6 -23,-11 -35,-15 -9,-3 -18,-7 -28,-9 -1,0 -3,-1 -4,-1 -2,-1 -5,-1 -7,-2 -3,-1 -5,-1 -8,-2 -2,-1 -5,0 -8,-1 -3,0 -5,-1 -8,-1 -8,-1 -18,-2 -28,-2l-16 0 -25 2c-7,1 -16,1 -23,3 -1,0 -3,1 -4,1 -2,0 -3,0 -4,1 -14,3 -28,8 -42,13 -2,1 -4,1 -6,2 -2,1 -4,2 -7,3 -9,4 -16,8 -24,12 -5,2 -9,6 -14,8l-24 17c-8,7 -17,14 -25,22 -3,3 -5,6 -8,9 -5,5 -9,11 -14,16l-18 25c-2,4 -5,7 -7,11l-12 25c-1,2 -2,3 -3,6 -1,2 -1,2 -1,3l-9 24c-1,3 -1,5 -2,7 -1,3 -2,2 -2,7 -1,7 -4,15 -5,22 0,3 0,5 -1,8 -1,3 -1,5 -2,8 -1,6 -1,10 -1,17 0,5 -1,13 -1,17 0,8 -1,18 1,26 2,10 2,22 4,32 1,2 2,6 2,8 1,4 0,4 1,8 1,3 1,4 2,7l13 37c5,11 10,23 16,34 1,2 2,4 4,6 1,2 2,3 3,5 1,2 2,4 4,6 1,2 2,3 4,5l12 16c3,3 6,7 9,10l5 4c5,6 17,18 23,23l49 33c1,1 2,1 3,2 1,1 2,1 3,2 13,7 24,11 38,17 2,1 1,0 3,1 2,1 1,0 3,1 2,1 5,1 7,2 7,3 14,4 22,5 2,1 5,2 7,2 3,1 5,0 8,1 3,1 5,1 8,1 9,2 25,2 35,2l-1 0z"/>
    </g>
   </g>
  </g>
 </g>
</svg>
